Coordinates
version=1
nRows=10
nColumns=40
inDegrees=yes

Units are S.I. units (second, meters, Newtons, ...)
Angles are in degrees.

endheader
time	pelvis_tilt	pelvis_list	pelvis_rotation	pelvis_tx	pelvis_ty	pelvis_tz	hip_flexion_r	hip_adduction_r	hip_rotation_r	knee_angle_r	knee_angle_r_beta	ankle_angle_r	subtalar_angle_r	mtp_angle_r	hip_flexion_l	hip_adduction_l	hip_rotation_l	knee_angle_l	knee_angle_l_beta	ankle_angle_l	subtalar_angle_l	mtp_angle_l	lumbar_extension	lumbar_bending	lumbar_rotation	arm_flex_r	arm_add_r	arm_rot_r	elbow_flex_r	pro_sup_r	wrist_flex_r	wrist_dev_r	arm_flex_l	arm_add_l	arm_rot_l	elbow_flex_l	pro_sup_l	wrist_flex_l	wrist_dev_l
     40.18000000	     -5.75553872	     -4.40325633	     -0.62108368	      0.92619334	      0.92161528	      0.42612556	      3.84587736	     -5.37120358	     -9.83238593	     30.64911277	     30.64911277	      9.76059995	     -0.89105391	    -19.37430146	     22.08986024	     -3.51783384	     -0.92382226	     29.95765478	     29.95765478	     15.83852183	    -14.82757109	      7.73254565	     -8.13063931	      5.50617707	      3.12310170	     37.27383186	    -15.42186089	    -15.11403204	     41.77450723	     45.91663490	      0.00000000	      0.00000000	      2.25242697	    -13.84515334	     19.73774221	     27.97733346	     44.87865035	      0.00000000	      0.00000000
     40.20407143	     -5.48503585	     -4.22692181	     -1.16733160	      0.92534940	      0.92016547	      0.42195876	      6.68178704	     -6.40842804	     -8.67491824	     36.51030630	     36.51030630	      8.37968963	     -3.14809447	    -20.36615159	     21.77828597	     -3.10076453	     -1.20020634	     30.63362758	     30.63362758	     16.44341054	    -15.42687408	      7.49855483	     -8.58217022	      5.60860902	      2.76504972	     34.24530678	    -14.76515441	    -15.04446618	     40.05518208	     45.95877722	      0.00000000	      0.00000000	      4.22623522	    -13.99941624	     19.53900880	     28.67125094	     44.94198340	      0.00000000	      0.00000000
     40.22814286	     -5.41135268	     -4.26035522	     -1.77673410	      0.92442139	      0.91836609	      0.41814016	      9.67391707	     -6.67535926	     -6.70512015	     41.94668151	     41.94668151	      6.05791730	     -7.35868494	    -21.36402544	     21.71130662	     -2.87991198	     -1.26126884	     31.38639145	     31.38639145	     17.18600781	    -16.22704292	      7.75014399	     -8.71691731	      5.91206361	      3.09020080	     30.84505946	    -14.62664290	    -15.22527112	     36.98401135	     46.06828839	      0.00000000	      0.00000000	      6.61918951	    -13.97095723	     19.10047352	     29.59533492	     45.05548630	      0.00000000	      0.00000000
     40.25221429	     -5.22591042	     -4.04811302	     -2.39743400	      0.92357211	      0.91649956	      0.41430008	     12.53524448	     -7.32698771	     -5.35644358	     47.25819942	     47.25819942	      4.07276672	     -9.80133006	    -21.10669174	     21.48189693	     -2.43350491	     -1.57276087	     32.07569053	     32.07569053	     17.87818411	    -16.83125759	      7.68119459	     -9.01797099	      5.95857590	      2.91682491	     27.43483473	    -14.06560873	    -15.24475096	     34.83481563	     46.13117257	      0.00000000	      0.00000000	      8.81011264	    -14.23158525	     18.70030403	     30.57718676	     45.14989141	      0.00000000	      0.00000000
     40.27628571	     -4.91104430	     -4.03921491	     -3.01699223	      0.92286778	      0.91496635	      0.41101788	     15.05392292	     -7.40013358	     -3.90398902	     51.95722290	     51.95722290	      2.26395648	    -12.49456522	    -19.37302334	     21.12846488	     -2.23489095	     -1.81700929	     32.82714056	     32.82714056	     18.71605975	    -17.31093633	      7.89715401	     -9.43147956	      6.19757730	      3.24149827	     23.88929216	    -13.83735691	    -15.35753672	     32.11827745	     46.22558727	      0.00000000	      0.00000000	     11.31759707	    -14.39495923	     18.06082783	     31.90592407	     45.28296387	      0.00000000	      0.00000000
     40.30035714	     -4.59786226	     -3.91444915	     -3.69733004	      0.92215750	      0.91371383	      0.40810785	     17.58123344	     -7.54717959	     -2.72598618	     56.38528302	     56.38528302	      1.96051577	    -13.46625404	    -13.88997477	     20.70521509	     -1.95523715	     -2.24118216	     33.45672275	     33.45672275	     19.85820414	    -17.52818361	      9.03577678	     -9.85010347	      6.28264409	      3.21812276	     20.84999738	    -13.29471343	    -15.81498503	     28.84318764	     46.38060994	      0.00000000	      0.00000000	     13.56760174	    -14.63891506	     16.59269288	     33.32953258	     45.52410634	      0.00000000	      0.00000000
     40.32442857	     -4.34414772	     -3.85536978	     -4.35857614	      0.92146595	      0.91273205	      0.40579724	     19.98320661	     -7.45555988	     -1.73728603	     60.07529133	     60.07529133	      2.27333059	    -14.13734782	     -7.71056114	     20.27492287	     -1.78102291	     -2.62862288	     33.92086599	     33.92086599	     20.69210662	    -17.78013865	      9.64432217	    -10.17605779	      6.42850025	      3.03242911	     17.56297431	    -12.67229829	    -16.21049788	     26.69370774	     46.49508345	      0.00000000	      0.00000000	     15.61573042	    -14.99414381	     14.63226522	     35.12656104	     45.80787861	      0.00000000	      0.00000000
     40.34850000	     -4.12201134	     -3.81140251	     -5.07300101	      0.92079120	      0.91233661	      0.40413302	     22.03571479	     -7.22666667	     -0.97334161	     62.47906413	     62.47906413	      1.36173140	    -15.75578443	     -6.36862614	     19.69418337	     -1.68506101	     -3.14572025	     34.01427928	     34.01427928	     21.11202577	    -18.01895846	      9.64789225	    -10.44153430	      6.53927050	      3.09829672	     14.04562346	    -12.25094345	    -16.16413962	     24.97918280	     46.53905055	      0.00000000	      0.00000000	     17.91856625	    -15.47986317	     13.93065026	     36.65519982	     45.92826052	      0.00000000	      0.00000000
     40.37257143	     -3.89353369	     -3.86371283	     -5.80214884	      0.92009760	      0.91251113	      0.40304918	     23.87468746	     -6.84755571	     -0.47411684	     64.05194121	     64.05194121	      1.34342229	    -16.63017111	     -4.28613135	     18.99204167	     -1.72739565	     -3.67977218	     33.91362297	     33.91362297	     21.54487647	    -18.13065963	      9.78691003	    -10.70684928	      6.74497180	      3.36756633	     10.53554133	    -11.93151919	    -16.05848273	     23.49662994	     46.57133288	      0.00000000	      0.00000000	     20.14613282	    -15.88041686	     12.90199962	     38.71804062	     46.08432315	      0.00000000	      0.00000000
     40.39664286	     -3.75494339	     -3.97040686	     -6.54981986	      0.91926512	      0.91331147	      0.40260218	     25.53790614	     -6.31620527	     -0.13585427	     64.60831670	     64.60831670	      2.00619010	    -16.94868583	     -2.03945638	     18.27227860	     -1.86461726	     -4.21457032	     33.58077883	     33.58077883	     21.82519337	    -18.20066918	     10.01881170	    -10.96187205	      6.96265902	      3.34243514	      7.08867526	    -11.53115194	    -15.84094950	     22.56543815	     46.57275944	      0.00000000	      0.00000000	     22.11608493	    -16.50505197	     11.39140925	     41.18848158	     46.28447742	      0.00000000	      0.00000000
